<svg width="60" height="20" viewBox="0 0 60 20" fill="none" xmlns="http://www.w3.org/2000/svg">
<path d="M3.02668 0.00124154L0 7.27352H1.97054L2.52901 5.81725H5.77563L6.33116 7.27352H8.34515L5.32123 0.00124154H3.02668ZM4.1465 1.69366L5.13609 4.23844H3.15403L4.1465 1.69366ZM8.55345 7.27228V0L11.3537 0.0107291L12.9824 4.69947L14.5721 0H17.3499V7.27228H15.5906V1.91376L13.7257 7.27228H12.1828L10.3128 1.91376V7.27228H8.55345ZM18.5537 7.27228V0H24.2945V1.62669H20.3315V2.87061H24.202V4.40167H20.3315V5.69347H24.2945V7.27228H18.5537ZM25.3131 0.00124154V7.27352H27.0724V4.68992H27.8131L29.9226 7.27352H32.0725L29.7576 4.59423C30.7077 4.51137 31.6877 3.66876 31.6877 2.36053C31.6877 0.830213 30.5254 0.00124154 29.2282 0.00124154H25.3131ZM27.0724 1.62793H29.0834C29.5659 1.62793 29.9168 2.01789 29.9168 2.39339C29.9168 2.8765 29.4621 3.15892 29.1095 3.15892H27.0724V1.62793ZM34.2022 7.27228H32.4059V0H34.2022V7.27228ZM38.4615 7.27228H38.0739C36.1978 7.27228 35.0587 5.74482 35.0587 3.66603C35.0587 1.53583 36.185 0 38.5541 0H40.4986V1.72238H38.4831C37.5213 1.72238 36.8412 2.49802 36.8412 3.68395C36.8412 5.09234 37.6189 5.68385 38.7393 5.68385H39.2023L38.4615 7.27228ZM42.2898 0.00124154L39.2631 7.27352H41.2337L41.7921 5.81725H45.0387L45.5943 7.27352H47.6082L44.5844 0.00124154H42.2898ZM43.4096 1.69366L44.3992 4.23844H42.4171L43.4096 1.69366ZM47.8136 7.27228V0H50.0504L52.9063 4.56911V0H54.6657V7.27228H52.5013L49.5729 2.5836V7.27228H47.8136ZM12.8128 19.9988V12.7265H18.5537V14.3532H14.5906V15.5972H18.4611V17.1282H14.5906V18.4199H18.5537V19.9988H12.8128ZM40.9431 19.9988V12.7265H46.684V14.3532H42.7209V15.5972H46.5729V17.1282H42.7209V18.4199H46.6839V19.9988H40.9431ZM18.7765 19.9988L21.5717 16.4075L18.7099 12.7265H20.9265L22.6308 15.002L24.3409 12.7265H26.4706L23.6465 16.3626L26.4468 19.9988H24.2307L22.5758 17.7591L20.9612 19.9988H18.7765ZM26.6558 12.7277V20H28.4613V17.7035H30.3132C31.8802 17.7035 33.0679 16.8444 33.0679 15.1738C33.0679 13.7898 32.1364 12.7277 30.5418 12.7277H26.6558ZM28.4613 14.3724H30.4116C30.9178 14.3724 31.2797 14.693 31.2797 15.2096C31.2797 15.695 30.9196 16.0469 30.4058 16.0469H28.4613V14.3724ZM33.8318 12.7265V19.9988H35.5911V17.4152H36.3319L38.4413 19.9988H40.5912L38.2764 17.3195C39.2264 17.2367 40.2064 16.394 40.2064 15.0858C40.2064 13.5555 39.0441 12.7265 37.7469 12.7265H33.8318ZM35.5911 14.3532H37.6022C38.0846 14.3532 38.4356 14.7431 38.4356 15.1187C38.4356 15.6018 37.9809 15.8842 37.6282 15.8842H35.5911V14.3532ZM47.4988 19.9988V18.4199H51.0197C51.5407 18.4199 51.7663 18.129 51.7663 17.8099C51.7663 17.5042 51.5414 17.1951 51.0197 17.1951H49.4287C48.0457 17.1951 47.2754 16.3244 47.2754 15.0171C47.2754 13.851 47.9808 12.7265 50.036 12.7265H53.4619L52.7212 14.3628H49.7581C49.1917 14.3628 49.0174 14.6699 49.0174 14.9632C49.0174 15.2646 49.2328 15.5972 49.6655 15.5972H51.3322C52.8739 15.5972 53.5429 16.5009 53.5429 17.6843C53.5429 18.9567 52.7975 19.9988 51.2483 19.9988H47.4988ZM53.9559 19.9988V18.4199H57.4767C57.9978 18.4199 58.2233 18.129 58.2233 17.8099C58.2233 17.5042 57.9985 17.1951 57.4767 17.1951H55.8857C54.5027 17.1951 53.7325 16.3244 53.7325 15.0171C53.7325 13.851 54.4378 12.7265 56.493 12.7265H59.919L59.1782 14.3628H56.2152C55.6488 14.3628 55.4744 14.6699 55.4744 14.9632C55.4744 15.2646 55.6898 15.5972 56.1226 15.5972H57.7893C59.331 15.5972 60 16.5009 60 17.6843C60 18.9567 59.2545 19.9988 57.7054 19.9988H53.9559Z" fill="#016FD0"/>
</svg>
