<?xml version="1.0" encoding="UTF-8"?>
<svg version="1.1" xmlns="http://www.w3.org/2000/svg" width="128" height="132">
<path d="M0 0 C1.02375732 -0.00095673 2.04751465 -0.00191345 3.10229492 -0.00289917 C5.25016339 -0.00357463 7.39803398 -0.00176502 9.54589844 0.00244141 C12.8040838 0.00779866 16.06213134 0.00247464 19.3203125 -0.00390625 C21.4218753 -0.00324536 23.52343801 -0.00196396 25.625 0 C26.58365967 -0.00202423 27.54231934 -0.00404846 28.5300293 -0.00613403 C42.18065578 0.04040084 42.18065578 0.04040084 47.8125 1.1328125 C48.3075 2.1228125 48.3075 2.1228125 48.8125 3.1328125 C49.534375 3.0503125 50.25625 2.9678125 51 2.8828125 C54.68373716 3.2102558 56.06385798 4.73656048 58.8125 7.1328125 C59.8953125 7.6278125 59.8953125 7.6278125 61 8.1328125 C63.35398954 9.43156535 63.64743867 10.73415682 64.8125 13.1328125 C66.0809375 14.40125 66.0809375 14.40125 67.375 15.6953125 C69.8125 18.1328125 69.8125 18.1328125 70.8125 21.1328125 C71.79237901 23.48282537 72.78032816 25.82907791 73.77734375 28.171875 C76.42731549 35.75179418 77.12983177 42.98887672 77.1484375 50.984375 C77.1584227 52.51002579 77.1584227 52.51002579 77.16860962 54.0664978 C77.17868403 56.20951546 77.18342826 58.35256416 77.18310547 60.49560547 C77.18745995 63.72808263 77.22378519 66.95917158 77.26171875 70.19140625 C77.36189306 88.43947551 75.39653232 103.92503407 62.8125 118.1328125 C62.02875 119.0196875 61.245 119.9065625 60.4375 120.8203125 C57.5986407 123.32121236 55.4327217 124.16742005 51.8125 125.1328125 C50.8225 125.6278125 50.8225 125.6278125 49.8125 126.1328125 C28.52960587 132.63023451 -2.84324977 132.18352629 -24.1875 126.1328125 C-24.83460937 126.00519531 -25.48171875 125.87757812 -26.1484375 125.74609375 C-28.69321635 124.98071007 -30.59715481 123.78362579 -32.8125 122.3203125 C-33.58851562 121.81886719 -34.36453125 121.31742187 -35.1640625 120.80078125 C-37.34333088 119.00435731 -38.05056593 117.67621243 -39.1875 115.1328125 C-40.12393027 113.90742661 -41.08369421 112.69962266 -42.0625 111.5078125 C-49.67870073 101.49529495 -51.4949001 89.54471256 -51.5234375 77.28125 C-51.5334227 75.75559921 -51.5334227 75.75559921 -51.54360962 74.1991272 C-51.55368403 72.05610954 -51.55842826 69.91306084 -51.55810547 67.77001953 C-51.56245995 64.53754237 -51.59878519 61.30645342 -51.63671875 58.07421875 C-51.71380076 43.83215102 -50.66676039 31.09133328 -44.1875 18.1328125 C-43.40375 17.3696875 -42.62 16.6065625 -41.8125 15.8203125 C-39.13403991 13.29101586 -39.13403991 13.29101586 -37.5625 10.3828125 C-36.1875 8.1328125 -36.1875 8.1328125 -33.1875 7.1328125 C-32.40375 6.4521875 -31.62 5.7715625 -30.8125 5.0703125 C-27.90701188 2.92578555 -26.69811223 2.73159967 -23.1875 3.1328125 C-22.8575 2.4728125 -22.5275 1.8128125 -22.1875 1.1328125 C-14.96676856 -0.26779641 -7.33056507 -0.01547865 0 0 Z " fill="#1F3362" transform="translate(51.1875,-0.1328125)"/>
<path d="M0 0 C5.23886706 5.15106482 8.00882945 9.83782041 8.375 17.25 C8.16868905 21.88132504 7.0368635 24.62131342 3.875 28.125 C1.51804502 29.85805513 -0.92147583 31.02910881 -3.5625 32.2734375 C-4.8928125 32.91152344 -4.8928125 32.91152344 -6.25 33.5625 C-7.09820312 33.95308594 -7.94640625 34.34367187 -8.8203125 34.74609375 C-11.42435552 36.30410593 -12.63943453 37.48295003 -14.125 40.125 C-14.66092217 42.90137595 -14.66092217 42.90137595 -14.75 45.8125 C-15.04084853 51.04084853 -15.04084853 51.04084853 -16.125 52.125 C-18.34646287 52.20074675 -20.57030979 52.20804187 -22.79296875 52.1875 C-23.80161736 52.18182007 -23.80161736 52.18182007 -24.8306427 52.17602539 C-27.71472571 52.15966452 -30.5986685 52.13174562 -33.48266602 52.10449219 C-35.58609347 52.08629106 -37.68949694 52.07426146 -39.79296875 52.0625 C-41.68438599 52.04509766 -41.68438599 52.04509766 -43.61401367 52.02734375 C-46.89141057 52.11850283 -49.90861737 52.52090486 -53.125 53.125 C-55.82529281 53.28087429 -58.41354778 53.21691363 -61.125 53.125 C-63.30269714 50.94730286 -62.44772265 45.9574206 -62.55078125 43.0078125 C-62.8666396 40.06123194 -62.8666396 40.06123194 -64.89453125 38.30078125 C-67.17675475 37.09771773 -68.96191755 36.58379708 -71.5 36.1875 C-75.80488388 35.31661066 -78.7320089 34.03327809 -82.125 31.125 C-86.10851746 24.5315918 -87.19340455 17.74134925 -86.125 10.125 C-82.67715144 2.27535268 -74.59541842 -3.10400591 -66.87109375 -6.1640625 C-45.79159297 -12.9544463 -17.85622157 -14.41028407 0 0 Z " fill="#F6F9FB" transform="translate(103.125,34.875)"/>
<path d="M0 0 C1.45947705 0.06006078 2.91779272 0.1488689 4.375 0.25 C5.59316406 0.31960937 5.59316406 0.31960937 6.8359375 0.390625 C9 1 9 1 10.2890625 3.046875 C10.64097656 4.01367188 10.64097656 4.01367188 11 5 C11.53625 4.175 12.0725 3.35 12.625 2.5 C15 0 15 0 18.0625 -0.5 C21 0 21 0 22.9375 1.125 C24 3 24 3 23.875 6.0625 C23 9 23 9 20 11 C18.68 11 17.36 11 16 11 C16 11.66 16 12.32 16 13 C18.64 13.33 21.28 13.66 24 14 C24.20145347 17.49186021 24.34907805 20.19917389 22.9375 23.4375 C21 25 21 25 17.5625 25.5625 C14 25 14 25 11.5625 22.5 C11.046875 21.675 10.53125 20.85 10 20 C9.649375 20.804375 9.29875 21.60875 8.9375 22.4375 C7 25 7 25 3.4375 25.9375 C1.7359375 25.9684375 1.7359375 25.9684375 0 26 C-2 24 -2 24 -2.3125 20.5625 C-2 17 -2 17 -0.75 15.0625 C1 14 1 14 5 14 C5 13.34 5 12.68 5 12 C4.030625 11.690625 3.06125 11.38125 2.0625 11.0625 C-1 10 -1 10 -2 9 C-2.26293056 4.96839809 -2.29404844 3.44107266 0 0 Z " fill="#E5EAF0" transform="translate(32,40)"/>
<path d="M0 0 C2.95529457 0.36040178 3.75137927 1.02476855 5.5625 3.3125 C6.09875 3.003125 6.635 2.69375 7.1875 2.375 C10.04688212 1.09580273 12.43314003 0.51224638 15.5625 0.3125 C17.5 1.4375 17.5 1.4375 18.5625 3.3125 C18.30115785 6.709948 17.20641844 9.35344682 15.5625 12.3125 C16.078125 12.869375 16.59375 13.42625 17.125 14 C18.5625 16.3125 18.5625 16.3125 18.3125 19 C17.5625 21.3125 17.5625 21.3125 16.5625 22.3125 C13.625 22.5 13.625 22.5 10.5625 22.3125 C9.9025 21.6525 9.2425 20.9925 8.5625 20.3125 C5.54944043 20.70128188 4.16564689 21.57706874 1.5625 23.3125 C-1.39826291 22.95361965 -2.28408021 22.46591979 -4.4375 20.3125 C-4.6875 17.8125 -4.6875 17.8125 -4.4375 15.3125 C-3.7775 14.6525 -3.1175 13.9925 -2.4375 13.3125 C-2.72733269 10.00566534 -2.72733269 10.00566534 -4.4375 7.3125 C-4.625 4.875 -4.625 4.875 -4.4375 2.3125 C-2.4375 0.3125 -2.4375 0.3125 0 0 Z " fill="#253661" transform="translate(79.4375,39.6875)"/>
<path d="M0 0 C3.16259871 -0.40373601 5.14012639 -0.54458662 7.875 1.1875 C9.40659584 3.65507108 9.42822025 5.14519831 9 8 C7.875 9.8125 7.875 9.8125 6 11 C2.9375 11.3125 2.9375 11.3125 0 11 C-2 9 -2 9 -2.25 6.0625 C-2 3 -2 3 0 0 Z " fill="#253461" transform="translate(32,40)"/>
<path d="M0 0 C3.0625 0.3125 3.0625 0.3125 5 1.4375 C6.0625 3.3125 6.0625 3.3125 5.9375 6.375 C5.0625 9.3125 5.0625 9.3125 2.0625 11.3125 C-1.25990324 10.9883631 -2.54526303 10.70473697 -4.9375 8.3125 C-5.1875 5.3125 -5.1875 5.3125 -4.9375 2.3125 C-2.9375 0.3125 -2.9375 0.3125 0 0 Z " fill="#2E3A65" transform="translate(49.9375,39.6875)"/>
<path d="M0 0 C3 0.25 3 0.25 5 2.25 C5.3125 5.75 5.3125 5.75 5 9.25 C1.77626323 11.39915785 0.73296326 11.63286803 -3 11.25 C-5 9.25 -5 9.25 -5.25 5.75 C-4.93427155 1.32980166 -4.46370491 0.37197541 0 0 Z " fill="#263B63" transform="translate(35,54.75)"/>
<path d="M0 0 C3.4375 0.1875 3.4375 0.1875 4.4375 1.1875 C4.625 4.625 4.625 4.625 4.4375 8.1875 C2.4375 10.1875 2.4375 10.1875 -1.0625 10.5 C-2.795 10.3453125 -2.795 10.3453125 -4.5625 10.1875 C-6.5625 7.1875 -6.5625 7.1875 -6.3125 4.625 C-5.08582461 0.63830499 -4.18419661 0.22022087 0 0 Z " fill="#2A3661" transform="translate(50.5625,54.8125)"/>
<path d="M0 0 C2 0.3125 2 0.3125 4 1 C5.35439668 3.70879335 5.06501451 6.00933268 5 9 C3.68 9.33 2.36 9.66 1 10 C-0.5625 8.3125 -0.5625 8.3125 -2 6 C-1.58974359 1.58974359 -1.58974359 1.58974359 0 0 Z " fill="#293863" transform="translate(59,71)"/>
<path d="M0 0 C0.04254356 1.99954746 0.04080783 4.00041636 0 6 C-1 7 -1 7 -3.5 7.125 C-6 7 -6 7 -7 6 C-7.04080783 4.00041636 -7.04254356 1.99954746 -7 0 C-4.3333581 -1.33332095 -2.83319697 -0.67102033 0 0 Z " fill="#E2EBF3" transform="translate(63,95)"/>
<path d="M0 0 C1.32 0.66 2.64 1.32 4 2 C3.45276317 5.37462715 2.9451 7.08235 1 10 C-0.32 9.67 -1.64 9.34 -3 9 C-3.36923077 3.46153846 -3.36923077 3.46153846 -1.5 1.125 C-1.005 0.75375 -0.51 0.3825 0 0 Z " fill="#2B3A5F" transform="translate(69,71)"/>
<path d="M0 0 C1.66611905 -0.042721 3.33382885 -0.04063832 5 0 C6 1 6 1 6.0625 4.0625 C6.041875 5.031875 6.02125 6.00125 6 7 C4.35 7.33 2.7 7.66 1 8 C-1 5 -1 5 -0.625 2.3125 C-0.41875 1.549375 -0.2125 0.78625 0 0 Z " fill="#D9E2ED" transform="translate(71,94)"/>
<path d="M0 0 C0.66 0 1.32 0 2 0 C1.67 2.31 1.34 4.62 1 7 C2.98 7 4.96 7 7 7 C6.67 5.02 6.34 3.04 6 1 C7.32 1 8.64 1 10 1 C10.22223194 3.74086056 10.34781139 5.43963721 8.875 7.8125 C6.16554166 9.52849028 4.13704316 9.333728 1 9 C-1 7 -1 7 -1.1875 3.9375 C-1 1 -1 1 0 0 Z " fill="#363E64" transform="translate(31,42)"/>
<path d="M0 0 C0.66 0 1.32 0 2 0 C2.12375 0.61875 2.2475 1.2375 2.375 1.875 C2.87197356 4.19120832 2.87197356 4.19120832 5 6 C3.02 6.66 1.04 7.32 -1 8 C-1.66 7.01 -2.32 6.02 -3 5 C-2.34 4.67 -1.68 4.34 -1 4 C-0.34786708 1.97536745 -0.34786708 1.97536745 0 0 Z M-2 8 C1.63 8.33 5.26 8.66 9 9 C9 9.33 9 9.66 9 10 C5.37 10 1.74 10 -2 10 C-2 9.34 -2 8.68 -2 8 Z " fill="#DFE0F0" transform="translate(64,76)"/>
<path d="M0 0 C1.670625 0.061875 1.670625 0.061875 3.375 0.125 C3.705 1.115 4.035 2.105 4.375 3.125 C3.6325 3.269375 2.89 3.41375 2.125 3.5625 C1.2175 3.748125 0.31 3.93375 -0.625 4.125 C-1.346875 4.269375 -2.06875 4.41375 -2.8125 4.5625 C-4.85156623 5.04106861 -4.85156623 5.04106861 -6.625 7.125 C-5.84042384 2.15601765 -5.49387562 0.18944399 0 0 Z " fill="#334066" transform="translate(50.625,54.875)"/>
<path d="M0 0 C1.65 0.33 3.3 0.66 5 1 C4.67 2.65 4.34 4.3 4 6 C2.35 5.67 0.7 5.34 -1 5 C-0.67 3.35 -0.34 1.7 0 0 Z " fill="#364062" transform="translate(64,28)"/>
<path d="M0 0 C1.65 0.33 3.3 0.66 5 1 C5 2.32 5 3.64 5 5 C2.03 4.505 2.03 4.505 -1 4 C-0.67 2.68 -0.34 1.36 0 0 Z " fill="#E9ECF8" transform="translate(43,96)"/>
<path d="M0 0 C2.0625 0.4375 2.0625 0.4375 4 1 C3.67 2.32 3.34 3.64 3 5 C1.68 5.33 0.36 5.66 -1 6 C-1.042721 4.33388095 -1.04063832 2.66617115 -1 1 C-0.67 0.67 -0.34 0.34 0 0 Z " fill="#CDE2F2" transform="translate(86,94)"/>
<path d="M0 0 C0.66 0 1.32 0 2 0 C1.67 2.31 1.34 4.62 1 7 C2.32 7.66 3.64 8.32 5 9 C0.125 8.125 0.125 8.125 -1 7 C-1.125 4 -1.125 4 -1 1 C-0.67 0.67 -0.34 0.34 0 0 Z " fill="#323C56" transform="translate(31,42)"/>
<path d="M0 0 C1.65 0 3.3 0 5 0 C5.66 1.32 6.32 2.64 7 4 C4.36 3.67 1.72 3.34 -1 3 C-0.67 2.01 -0.34 1.02 0 0 Z " fill="#212F5F" transform="translate(48,40)"/>
<path d="M0 0 C2.0625 0.4375 2.0625 0.4375 4 1 C3.67 1.99 3.34 2.98 3 4 C1 3 1 3 0 2 C0 3.32 0 4.64 0 6 C-0.66 6 -1.32 6 -2 6 C-1.125 1.125 -1.125 1.125 0 0 Z " fill="#4A5373" transform="translate(59,71)"/>
<path d="M0 0 C-0.66 1.32 -1.32 2.64 -2 4 C-3.32 3.67 -4.64 3.34 -6 3 C-6.33 3.66 -6.66 4.32 -7 5 C-7 4.01 -7 3.02 -7 2 C-4.35261084 0.5393715 -3.10551666 0 0 0 Z " fill="#3E486D" transform="translate(100,67)"/>
<path d="M0 0 C2.31 0.33 4.62 0.66 7 1 C7 1.99 7 2.98 7 4 C4.36 3.34 1.72 2.68 -1 2 C-0.67 1.34 -0.34 0.68 0 0 Z " fill="#374363" transform="translate(87,25)"/>
<path d="M0 0 C3.3 0 6.6 0 10 0 C10 0.33 10 0.66 10 1 C6.7 1 3.4 1 0 1 C0 0.67 0 0.34 0 0 Z " fill="#0D3352" transform="translate(79,129)"/>
<path d="M0 0 C3.3 0 6.6 0 10 0 C10 0.33 10 0.66 10 1 C6.7 1 3.4 1 0 1 C0 0.67 0 0.34 0 0 Z " fill="#112F58" transform="translate(39,129)"/>
<path d="M0 0 C4 1 4 1 4 1 Z " fill="#072145" transform="translate(89,128)"/>
<path d="M0 0 C4 1 4 1 4 1 Z " fill="#082546" transform="translate(35,128)"/>
<path d="M0 0 C1 4 1 4 1 4 Z " fill="#06225C" transform="translate(127,94)"/>
<path d="M0 0 C1 4 1 4 1 4 Z " fill="#08215B" transform="translate(0,94)"/>
<path d="M0 0 C1 4 1 4 1 4 Z " fill="#0F2967" transform="translate(127,31)"/>
<path d="M0 0 C1 4 1 4 1 4 Z " fill="#102961" transform="translate(0,31)"/>
<path d="" fill="#081F26" transform="translate(0,0)"/>
<path d="" fill="#081F25" transform="translate(0,0)"/>
<path d="" fill="#0C1558" transform="translate(0,0)"/>
<path d="" fill="#061148" transform="translate(0,0)"/>
<path d="" fill="#07273D" transform="translate(0,0)"/>
<path d="" fill="#062841" transform="translate(0,0)"/>
<path d="M0 0 C3 1 3 1 3 1 Z " fill="#104251" transform="translate(100,2)"/>
<path d="M0 0 C3 1 3 1 3 1 Z " fill="#0F4154" transform="translate(25,2)"/>
<path d="M0 0 C3 1 3 1 3 1 Z " fill="#064462" transform="translate(93,0)"/>
<path d="M0 0 C3 1 3 1 3 1 Z " fill="#064464" transform="translate(32,0)"/>
<path d="M0 0 C2 1 2 1 2 1 Z " fill="#1A2341" transform="translate(94,127)"/>
<path d="M0 0 C2 1 2 1 2 1 Z " fill="#1A2436" transform="translate(32,127)"/>
<path d="M0 0 C2 1 2 1 2 1 Z " fill="#122445" transform="translate(101,125)"/>
<path d="M0 0 C2 1 2 1 2 1 Z " fill="#11294F" transform="translate(25,125)"/>
<path d="" fill="#0E2343" transform="translate(0,0)"/>
<path d="" fill="#0D2342" transform="translate(0,0)"/>
<path d="" fill="#102F67" transform="translate(0,0)"/>
<path d="" fill="#0F2F66" transform="translate(0,0)"/>
<path d="" fill="#15306D" transform="translate(0,0)"/>
<path d="" fill="#0B2561" transform="translate(0,0)"/>
<path d="" fill="#0C2160" transform="translate(0,0)"/>
<path d="" fill="#0C2160" transform="translate(0,0)"/>
<path d="" fill="#09242F" transform="translate(0,0)"/>
<path d="" fill="#082734" transform="translate(0,0)"/>
<path d="" fill="#0D283D" transform="translate(0,0)"/>
<path d="" fill="#0F273E" transform="translate(0,0)"/>
<path d="" fill="#1B2858" transform="translate(0,0)"/>
<path d="" fill="#1B285B" transform="translate(0,0)"/>
<path d="" fill="#394588" transform="translate(0,0)"/>
<path d="" fill="#3B4785" transform="translate(0,0)"/>
<path d="" fill="#00054B" transform="translate(0,0)"/>
<path d="" fill="#000748" transform="translate(0,0)"/>
<path d="" fill="#1D304A" transform="translate(0,0)"/>
<path d="" fill="#1F3048" transform="translate(0,0)"/>
<path d="" fill="#324760" transform="translate(0,0)"/>
<path d="" fill="#2F4259" transform="translate(0,0)"/>
<path d="" fill="#00044B" transform="translate(0,0)"/>
<path d="" fill="#01094A" transform="translate(0,0)"/>
<path d="" fill="#080F58" transform="translate(0,0)"/>
<path d="" fill="#070E54" transform="translate(0,0)"/>
<path d="" fill="#00034A" transform="translate(0,0)"/>
<path d="" fill="#000349" transform="translate(0,0)"/>
<path d="" fill="#29476F" transform="translate(0,0)"/>
<path d="" fill="#28466E" transform="translate(0,0)"/>
<path d="" fill="#144348" transform="translate(0,0)"/>
<path d="" fill="#184349" transform="translate(0,0)"/>
<path d="" fill="#174C8C" transform="translate(0,0)"/>
<path d="" fill="#19498B" transform="translate(0,0)"/>
<path d="" fill="#040537" transform="translate(0,0)"/>
<path d="" fill="#010B3C" transform="translate(0,0)"/>
<path d="" fill="#2B3F6A" transform="translate(0,0)"/>
<path d="" fill="#304673" transform="translate(0,0)"/>
<path d="" fill="#000831" transform="translate(0,0)"/>
<path d="" fill="#000935" transform="translate(0,0)"/>
<path d="" fill="#28446C" transform="translate(0,0)"/>
<path d="" fill="#253E6A" transform="translate(0,0)"/>
<path d="" fill="#021D46" transform="translate(0,0)"/>
<path d="" fill="#001E48" transform="translate(0,0)"/>
<path d="" fill="#030576" transform="translate(0,0)"/>
<path d="" fill="#030672" transform="translate(0,0)"/>
</svg>
